<svg xmlns="http://www.w3.org/2000/svg" viewBox="0 0 595.276 204" xmlns:v="https://vecta.io/nano"><path d="M236.668 147.072a27.8 27.8 0 0 0-2.517-1.354c-.895-.425-1.811-.792-2.747-1.099s-1.878-.549-2.823-.728-1.861-.269-2.747-.269c-.562 0-1.146.051-1.75.153s-1.158.29-1.661.562-.906.635-1.213 1.086-.46 1.018-.46 1.699c0 .937.271 1.707.817 2.312s1.265 1.125 2.159 1.559 1.912.822 3.053 1.163l3.514 1.086c1.201.383 2.372.83 3.514 1.342s2.159 1.158 3.053 1.941 1.618 1.742 2.172 2.875.831 2.508.831 4.126c0 1.874-.405 3.484-1.214 4.829a10.24 10.24 0 0 1-3.169 3.31c-1.303.86-2.78 1.49-4.433 1.891s-3.313.601-4.982.601c-1.397 0-2.785-.128-4.165-.384a24.1 24.1 0 0 1-4.024-1.111c-1.302-.485-2.555-1.086-3.756-1.802s-2.312-1.523-3.335-2.427l2.964-5.749c.818.732 1.721 1.427 2.709 2.082s2.022 1.223 3.104 1.699a20.41 20.41 0 0 0 3.309 1.137c1.124.281 2.224.422 3.296.422.682 0 1.371-.067 2.07-.204s1.332-.362 1.903-.678 1.039-.736 1.405-1.265.55-1.184.55-1.967c0-.954-.277-1.742-.831-2.364s-1.277-1.149-2.172-1.584-1.916-.813-3.065-1.137l-3.526-1.048a36.19 36.19 0 0 1-3.526-1.303 12.09 12.09 0 0 1-3.066-1.878c-.894-.758-1.613-1.695-2.159-2.811s-.817-2.475-.817-4.076c0-1.788.384-3.334 1.15-4.638a9.69 9.69 0 0 1 3.04-3.206c1.261-.835 2.7-1.452 4.318-1.853s3.279-.601 4.982-.601c1.142 0 2.295.085 3.462.256a25.51 25.51 0 0 1 3.424.74 24.63 24.63 0 0 1 3.258 1.201c1.057.478 2.045 1.014 2.965 1.609l-2.864 5.855zm27.902 7.896c-.834-.937-1.826-1.674-2.977-2.21s-2.475-.805-3.973-.805c-1.039 0-2.002.195-2.888.587a6.56 6.56 0 0 0-2.287 1.674c-.639.725-1.133 1.589-1.481 2.594s-.524 2.112-.524 3.321c0 1.244.175 2.368.524 3.373s.843 1.87 1.481 2.594a6.69 6.69 0 0 0 2.287 1.687c.886.401 1.849.6 2.888.6 1.55 0 2.926-.271 4.126-.817s2.193-1.362 2.977-2.453l4.497 3.424a11.61 11.61 0 0 1-2.107 2.325c-.81.682-1.717 1.252-2.722 1.712s-2.1.814-3.283 1.061a18.56 18.56 0 0 1-3.794.371c-2.062 0-3.948-.337-5.66-1.01s-3.173-1.613-4.382-2.823-2.155-2.666-2.836-4.369-1.022-3.586-1.022-5.647c0-2.077.341-3.973 1.022-5.685s1.631-3.182 2.849-4.408 2.683-2.176 4.395-2.849 3.591-1.009 5.635-1.009a19.12 19.12 0 0 1 3.653.332c1.141.222 2.202.545 3.182.971a12.99 12.99 0 0 1 2.683 1.559 11.55 11.55 0 0 1 2.134 2.096l-4.397 3.804zm10.043-19.138h7.001v37.918h-7.001V135.83zm19.853 22.74c0-.953-.137-1.813-.409-2.58s-.664-1.419-1.176-1.955a5.05 5.05 0 0 0-1.853-1.227c-.724-.281-1.546-.422-2.465-.422-1.073 0-2.041.205-2.9.613s-1.589.968-2.185 1.674-1.057 1.542-1.38 2.504-.485 2.006-.485 3.13h-1.814c0-2.47.269-4.586.805-6.349s1.304-3.224 2.3-4.383a8.91 8.91 0 0 1 3.642-2.555c1.431-.545 3.04-.826 4.829-.844 1.55 0 2.951.247 4.203.741s2.312 1.192 3.181 2.096 1.538 2.002 2.006 3.296.703 2.751.703 4.369v17.068h-7.001V158.57z"/><use href="#B"/><use href="#B" x="32.17"/><path d="M379.757 164.958c0 1.073.226 1.857.677 2.352s1.052.74 1.802.74a3.99 3.99 0 0 0 1.265-.217c.435-.145.907-.354 1.418-.626l.767 5.468c-.869.46-1.737.805-2.606 1.035a10 10 0 0 1-2.555.345c-1.057 0-2.053-.179-2.99-.536a6.83 6.83 0 0 1-2.452-1.598c-.699-.706-1.252-1.593-1.661-2.657s-.613-2.304-.613-3.718V135.83h6.95v29.128z"/><path d="M50.292 159.099h138.072" fill="#f1f2f2"/><path d="M188.364 160.6H50.292a1.5 1.5 0 1 1 0-3h138.073a1.5 1.5 0 1 1-.001 3z"/><path d="M403.645 155.969h141.19" fill="#f1f2f2"/><path d="M544.835 157.469h-141.19a1.5 1.5 0 1 1 0-3h141.19a1.5 1.5 0 1 1 0 3zm-427.131-48.696a41.95 41.95 0 0 1-3.85 4.15c-2.11 1.99-4.36 3.68-6.74 5.05-4.83 2.79-9.8 4.53-14.9 5.21-5.1.69-10.02.4-14.74-.87-4.72-1.26-9.12-3.44-13.18-6.53-4.07-3.09-7.48-7.02-10.23-11.79-2.72-4.7-4.37-9.57-4.96-14.61-.58-5.04-.19-9.91 1.19-14.62s3.67-9.11 6.89-13.21c3.21-4.09 7.28-7.56 12.2-10.4 2.38-1.38 4.93-2.49 7.64-3.34 2.7-.85 5.47-1.45 8.28-1.79 2.82-.34 5.63-.42 8.43-.22 1.68.12 3.32.34 4.92.67l3.15.81-3.15 17.41c-1.77-.74-3.59-1.26-5.47-1.59-1.88-.32-3.72-.46-5.53-.41-1.8.04-3.54.28-5.2.72-1.67.43-3.21 1.05-4.61 1.86-2.45 1.41-4.43 3.19-5.96 5.34-1.53 2.14-2.6 4.49-3.19 7.03s-.66 5.19-.23 7.96c.44 2.76 1.42 5.47 2.96 8.13 1.51 2.63 3.36 4.83 5.55 6.6 2.18 1.77 4.53 3.06 7.05 3.84a19.3 19.3 0 0 0 7.7.81c2.63-.25 5.16-1.08 7.61-2.5 1.34-.77 2.61-1.74 3.79-2.89 1.19-1.15 2.28-2.46 3.28-3.91a30.47 30.47 0 0 0 2.63-4.7 29.15 29.15 0 0 0 1.79-5.21h.01c-.01.27-.01.53-.01.8 0 5.51 1.02 10.61 3.05 15.32 1.06 2.47 2.34 4.76 3.83 6.88zm76.83-33.31c-.41-1.38-.9-2.73-1.47-4.05-1.45-3.33-3.28-6.33-5.53-9.01-.88-1.08-1.85-2.11-2.88-3.08a35.79 35.79 0 0 0-1.29-1.17c-3.3-2.84-7.12-5.11-11.44-6.82-4.9-1.94-10.23-2.91-15.98-2.91s-11.07.96-15.96 2.88c-4.88 1.92-9.12 4.59-12.7 7.99-3.58 3.41-6.38 7.44-8.41 12.09-1.93 4.43-2.95 9.22-3.04 14.39-.01.27-.01.53-.01.8 0 5.51 1.02 10.61 3.05 15.32 1.06 2.47 2.34 4.76 3.83 6.88 1.35 1.93 2.87 3.71 4.58 5.35 3.58 3.44 7.82 6.14 12.7 8.09 4.89 1.96 10.21 2.94 15.96 2.94s11.08-.98 15.98-2.94l.44-.18c2.9-1.19 5.57-2.65 8-4.38a37.51 37.51 0 0 0 4.29-3.56c3.34-3.22 5.99-6.98 7.97-11.27a16.35 16.35 0 0 0 .44-.95c2.03-4.7 3.05-9.79 3.05-15.3 0-3.9-.53-7.6-1.58-11.11zm-20.23 19.9c-1.02 2.68-2.42 5-4.21 6.96-1.78 1.95-3.86 3.51-6.24 4.65-2.38 1.15-4.93 1.72-7.65 1.72-2.71 0-5.3-.57-7.75-1.72-2.45-1.14-4.6-2.7-6.43-4.65-1.84-1.96-3.3-4.28-4.39-6.96-1.1-2.68-1.64-5.58-1.64-8.68 0-3.11.53-5.99 1.61-8.65.83-2.06 2.95-5.4 4.37-6.88 1.83-1.93 3.97-3.44 6.43-4.56 2.45-1.11 5.05-1.66 7.8-1.66 2.72 0 5.27.55 7.65 1.66a19.94 19.94 0 0 1 6.24 4.56c1.79 1.92 3.19 4.21 4.21 6.88 1.02 2.66 1.54 5.54 1.54 8.65 0 3.1-.52 6-1.54 8.68zm78.14-9.64v38.06h-20.27v-39.82c0-10.22-6.95-17.17-17.37-17.17-7.04 0-12.52 3.29-15.27 8.67-.41-1.38-.9-2.73-1.47-4.05-1.45-3.33-3.28-6.33-5.53-9.01-.88-1.08-1.85-2.11-2.88-3.08a35.79 35.79 0 0 0-1.29-1.17c6.56-6.12 15.79-9.6 26.91-9.6 22.27 0 37.17 14.9 37.17 37.17zm83.256 0v38.06h-20.27v-39.82c0-10.22-6.95-17.17-17.37-17.17-10.23 0-17.18 6.95-17.18 17.17v39.82h-20.26v-38.06c0-22.27 14.9-37.17 37.91-37.17 22.27 0 37.17 14.9 37.17 37.17z"/><path d="M403.635 98.863l-.01.01h.02l-.01-.01z" fill="#384ea1"/><path d="M421.285 93.373c.46-6.91-.03-13.14-1.49-18.69-1.46-5.56-3.8-10.29-7.02-14.18s-7.32-6.9-12.3-9.03-10.74-3.2-17.27-3.2c-5.88 0-11.23.93-16.05 2.78s-8.95 4.47-12.4 7.85-6.13 7.45-8.03 12.2-2.85 10.04-2.85 15.87c0 5.75.93 10.97 2.78 15.67 1.86 4.71 4.5 8.72 7.93 12.06 1.81 1.77 3.84 3.32 6.09 4.66 1.99 1.2 4.15 2.23 6.48 3.09 4.96 1.83 10.52 2.74 16.68 2.74 2.2 0 4.33-.11 6.38-.34.49-.05.97-.11 1.45-.18.23-.03.45-.07.67-.1l1.29-.22 1.61-.31c.04-.02.08-.03.12-.03.51-.11 1.01-.23 1.51-.36.51-.13 1.02-.27 1.52-.42 7.51-2.24 13.4-6.34 17.26-12.49 2.19-3.46 3.93-7.09 4.77-11.87h-19.79s-2.3 4.38-5.29 5.65-6.11 1.91-9.35 1.91c-2.64 0-5.06-.47-7.26-1.42s-4.08-2.31-5.63-4.07-2.75-3.95-3.61-6.57c-.11-.33-.21-.66-.3-1h52.1zm-52.63-13.27c.16-.87.35-1.72.59-2.54.69-2.43 1.7-4.53 3.02-6.29s2.92-3.14 4.79-4.13c1.88-1 4-1.5 6.36-1.5 1.99 0 3.82.35 5.49 1.04 1.67.7 3.1 1.68 4.31 2.96 1.2 1.27 2.13 2.79 2.78 4.55s.97 3.73.97 5.91h-28.31zm119.52 5.67c-.43 1.79-1.02 3.53-1.78 5.21-.77 1.69-1.64 3.25-2.64 4.7-.99 1.45-2.09 2.76-3.27 3.91-1.19 1.15-2.46 2.12-3.8 2.89-2.45 1.42-4.98 2.25-7.6 2.5-2.63.25-5.2-.02-7.71-.81-2.51-.78-4.86-2.07-7.05-3.84-2.18-1.77-4.03-3.97-5.55-6.6-1.54-2.66-2.52-5.37-2.96-8.13-.43-2.77-.35-5.42.24-7.96a19.62 19.62 0 0 1 3.18-7.03c1.53-2.15 3.52-3.93 5.96-5.34 1.41-.81 2.94-1.43 4.61-1.86 1.66-.44 3.4-.68 5.21-.72 1.8-.05 3.65.09 5.52.41 1.88.33 3.7.85 5.47 1.59l3.15-17.41a35.74 35.74 0 0 0-8.07-1.48 43.93 43.93 0 0 0-8.42.22c-2.82.34-5.58.94-8.29 1.79a37.87 37.87 0 0 0-7.64 3.34c-4.92 2.84-8.98 6.31-12.2 10.4-3.21 4.1-5.51 8.5-6.89 13.21-1.37 4.71-1.77 9.58-1.18 14.62.58 5.04 2.24 9.91 4.95 14.61 2.75 4.77 6.16 8.7 10.23 11.79s8.46 5.27 13.18 6.53c4.73 1.27 9.64 1.56 14.74.87 5.11-.68 10.07-2.42 14.9-5.21 2.38-1.37 4.63-3.06 6.74-5.05s4-4.17 5.69-6.55c1.68-2.38 3.15-4.92 4.4-7.62 1.25-2.69 2.21-5.44 2.89-8.23l-16.01-4.75zm13.682-36.851h44.619v16.343h-44.619V48.922zm28.82 75.966c-3.05.045-5.458-.45-7.98-1.489s-4.707-2.573-6.552-4.605-3.276-4.546-4.292-7.548-1.525-6.439-1.525-10.317V31.68h20.333v65.37"/><defs ><path id="B" d="M326.903 147.2c1.779.664 3.305 1.605 4.573 2.823s2.253 2.679 2.951 4.382 1.048 3.595 1.048 5.673c0 2.062-.35 3.947-1.048 5.659s-1.683 3.178-2.951 4.396-2.794 2.168-4.573 2.849-3.752 1.022-5.915 1.022-4.136-.341-5.915-1.022-3.31-1.631-4.587-2.849-2.266-2.684-2.964-4.396-1.048-3.598-1.048-5.659c0-2.078.35-3.969 1.048-5.673s1.687-3.163 2.964-4.382 2.807-2.159 4.587-2.823 3.751-.996 5.915-.996 4.135.332 5.915.996zm-8.956 5.238c-.92.408-1.708.979-2.363 1.712s-1.167 1.609-1.533 2.632-.55 2.146-.55 3.372.184 2.36.55 3.398.877 1.921 1.533 2.645 1.443 1.291 2.363 1.699 1.934.613 3.041.613 2.116-.204 3.027-.613 1.695-.975 2.351-1.699 1.167-1.605 1.533-2.645.55-2.172.55-3.398-.184-2.351-.55-3.372-.877-1.899-1.533-2.632a6.9 6.9 0 0 0-2.351-1.712c-.911-.409-1.921-.613-3.027-.613s-2.121.204-3.041.613z"/></defs></svg>